<?xml version="1.0" encoding="UTF-8"?><svg xmlns="http://www.w3.org/2000/svg" xmlns:xlink="http://www.w3.org/1999/xlink" viewBox="0 0 200 197.78" width="24" height="24"><defs><style>.g{fill:url(#f);}.h{fill:url(#d);}.i{fill:url(#e);}</style><linearGradient id="d" x1="32.96" y1="14.04" x2="32.96" y2="200.82" gradientTransform="matrix(1, 0, 0, 1, 0, 0)" gradientUnits="userSpaceOnUse"><stop offset="0" stop-color="#fc34ff"/><stop offset=".03" stop-color="#f434ff"/><stop offset=".28" stop-color="#bb34ff"/><stop offset=".51" stop-color="#8f34ff"/><stop offset=".71" stop-color="#6e34ff"/><stop offset=".88" stop-color="#5b34ff"/><stop offset="1" stop-color="#5434ff"/></linearGradient><linearGradient id="e" x1="98.88" y1="88.38" x2="98.88" y2="195.8" gradientTransform="matrix(1, 0, 0, 1, 0, 0)" gradientUnits="userSpaceOnUse"><stop offset="0" stop-color="#5434ff" stop-opacity="0"/><stop offset="0" stop-color="#5434ff" stop-opacity="0"/><stop offset=".12" stop-color="#5434ff" stop-opacity=".24"/><stop offset=".25" stop-color="#5434ff" stop-opacity=".44"/><stop offset=".37" stop-color="#5434ff" stop-opacity=".61"/><stop offset=".5" stop-color="#5434ff" stop-opacity=".75"/><stop offset=".62" stop-color="#5434ff" stop-opacity=".86"/><stop offset=".75" stop-color="#5434ff" stop-opacity=".94"/><stop offset=".87" stop-color="#5434ff" stop-opacity=".98"/><stop offset="1" stop-color="#5434ff"/></linearGradient><linearGradient id="f" x1="167.04" y1="135.14" x2="167.04" y2="198.7" gradientTransform="matrix(1, 0, 0, 1, 0, 0)" gradientUnits="userSpaceOnUse"><stop offset="0" stop-color="#4ba5ff" stop-opacity="0"/><stop offset="0" stop-color="#4ba5ff" stop-opacity="0"/><stop offset=".08" stop-color="#4ba5ff" stop-opacity=".21"/><stop offset=".17" stop-color="#4ba5ff" stop-opacity=".4"/><stop offset=".26" stop-color="#4ba5ff" stop-opacity=".56"/><stop offset=".35" stop-color="#4ba5ff" stop-opacity=".7"/><stop offset=".45" stop-color="#4ba5ff" stop-opacity=".81"/><stop offset=".55" stop-color="#4ba5ff" stop-opacity=".89"/><stop offset=".67" stop-color="#4ba5ff" stop-opacity=".95"/><stop offset=".8" stop-color="#4ba5ff" stop-opacity=".99"/><stop offset=".99" stop-color="#4ba5ff"/></linearGradient></defs><g id="a"/><g id="b"><g id="c"><g><path class="h" d="M65.92,89.51v108.28h-31.53V75.95c0-14.92-9.51-27.63-22.79-32.39C4.53,41.03,0,34.09,0,26.59V0H34.39V39.65c0,13.63,7.94,25.41,19.45,30.97,7.31,3.53,12.08,10.77,12.08,18.89Z"/><path class="i" d="M131.84,132.08v65.71h-31.53V118.52c0-14.92-9.51-27.63-22.79-32.39-7.07-2.53-11.6-9.47-11.6-16.98V0h34.39l-13.25,85.22c0,13.63,21.19,22.41,32.7,27.97,7.31,3.53,12.08,10.77,12.08,18.89Z"/><path class="g" d="M200,174.69v23.09h-31.53v-36.65c0-14.92-9.51-27.63-22.79-32.39-7.07-2.53-11.6-9.47-11.6-16.98V0h34.39l-14.31,125.73c0,13.63,22.24,24.51,33.75,30.07,7.31,3.53,12.08,10.77,12.08,18.89Z"/></g></g></g></svg>
