<svg width="183" height="183" viewBox="0 0 183 183" fill="none" xmlns="http://www.w3.org/2000/svg">
<circle cx="91.5" cy="91.5" r="91.5" fill="#100F1B"/>
<path d="M113.94 144.004H96.9332V105.87C96.9332 99.4633 96.2663 93.3419 92.0027 88.745C114.059 96.6289 113.916 103.084 113.916 111.063L113.94 144.004ZM144.976 128.689C144.976 120.709 145.072 114.255 123.015 106.371C127.255 110.968 127.946 117.113 127.946 123.496V143.98H145L144.976 128.689ZM82.9514 93.3657C82.9514 85.3866 83.0467 78.9318 60.9902 71.0479C65.23 75.6448 65.897 81.79 65.897 88.1733V143.98H82.9514V93.3657Z" fill="white"/>
<path d="M39 48.7213C39 56.7027 38.9046 63.1593 60.9915 71.0454C56.7459 66.4472 56.1257 60.3003 56.1257 53.9152L56.078 38H39.0477L39 48.7213Z" fill="white"/>
</svg>
